<?xml version="1.0" encoding="UTF-8" standalone="no"?><!-- Generator: Gravit.io --><svg xmlns="http://www.w3.org/2000/svg" xmlns:xlink="http://www.w3.org/1999/xlink" style="isolation:isolate" viewBox="0 0 824.504 491.794" width="824.504pt" height="491.794pt"><g><path d=" M 244.206 282.331 C 244.206 166.724 338.064 72.867 453.67 72.867 C 569.274 72.867 663.134 166.724 663.134 282.331 C 663.134 397.937 569.274 491.794 453.67 491.794 C 338.064 491.794 244.206 397.937 244.206 282.331 Z " fill="rgb(251,157,181)"/><path d=" M 0 170.742 C 0 130.526 32.65 97.876 72.866 97.876 C 113.082 97.876 145.733 130.526 145.733 170.742 C 145.733 210.958 113.082 243.609 72.866 243.609 C 32.65 243.609 0 210.958 0 170.742 Z " fill="rgb(251,157,181)"/><path d=" M 628.134 98.183 C 628.134 43.995 672.124 0 726.314 0 C 780.504 0 824.504 43.995 824.504 98.183 C 824.504 152.372 780.504 196.367 726.314 196.367 C 672.124 196.367 628.134 152.372 628.134 98.183 Z " fill="rgb(251,157,181)"/><path d=" M 149.134 72.867 C 149.134 39.2 176.467 11.867 210.134 11.867 C 243.801 11.867 271.134 39.2 271.134 72.867 C 271.134 106.533 243.801 133.867 210.134 133.867 C 176.467 133.867 149.134 106.533 149.134 72.867 Z " fill="rgb(212,0,103)"/><path d=" M 717.134 298.063 C 717.134 272.123 738.194 251.063 764.134 251.063 C 790.074 251.063 811.134 272.123 811.134 298.063 C 811.134 324.003 790.074 345.063 764.134 345.063 C 738.194 345.063 717.134 324.003 717.134 298.063 Z " fill="rgb(212,0,103)"/></g></svg>