<?xml version="1.0" encoding="UTF-8" standalone="no"?><!-- Generator: Gravit.io --><svg xmlns="http://www.w3.org/2000/svg" xmlns:xlink="http://www.w3.org/1999/xlink" style="isolation:isolate" viewBox="0 0 284.057 431.527" width="284.057pt" height="431.527pt"><path d=" M 29.081 345.328 C 29.134 347.542 29.137 349.759 29.095 351.98 C 29.108 354.412 28.901 356.86 28.495 359.275 C 28.44 359.525 28.335 359.755 28.156 359.989 C 27.731 360.538 27.227 361.018 26.668 361.43 C 25.784 362.087 24.846 362.674 23.879 363.214 C 22.7 363.869 21.519 364.5 20.312 365.107 C 17.988 366.218 15.726 367.496 13.548 368.915 C 12.379 369.692 11.289 370.561 10.285 371.571 C 9.164 372.664 8.229 373.939 7.526 375.369 C 6.641 377.304 6.085 379.362 5.854 381.493 C 5.622 383.624 5.589 385.764 5.752 387.915 C 6.09 392.362 7.135 396.731 8.824 400.854 C 9.668 402.903 10.727 404.862 11.971 406.685 C 13.217 408.532 14.744 410.185 16.541 411.523 C 17.428 412.193 18.38 412.759 19.377 413.273 C 20.552 413.848 21.745 414.347 22.981 414.769 C 23.889 415.069 24.796 415.368 25.724 415.617 C 26.827 415.902 27.929 416.162 29.026 416.374 C 32.072 417.002 35.154 417.456 38.27 417.711 C 42.303 418.068 46.373 418.275 50.437 418.384 C 51.678 419.518 52.983 420.525 54.402 421.4 C 57.088 423.113 59.924 424.544 62.891 425.744 C 65.401 426.757 67.973 427.618 70.583 428.329 C 73.973 429.276 77.425 430.07 80.891 430.741 C 82.961 431.124 85.045 431.384 87.166 431.493 C 89.064 431.569 90.978 431.522 92.878 431.304 C 94.632 431.097 96.401 430.766 98.11 430.292 C 99.77 429.822 101.396 429.231 102.987 428.496 C 104.575 427.736 106.084 426.884 107.532 425.889 C 109.049 424.84 110.486 423.699 111.839 422.416 C 113.306 421.027 114.691 419.521 115.921 417.928 C 116.414 417.301 116.905 416.649 117.348 416.001 C 123.18 418.04 129.11 419.752 135.117 421.187 C 142.4 422.919 149.797 424.2 157.255 425.01 C 160.897 425.396 164.591 425.484 168.257 425.23 C 172.22 424.978 176.159 424.433 180.025 423.55 C 184.448 422.574 188.77 421.238 192.968 419.567 C 196.285 418.259 199.517 416.809 202.715 415.238 C 203.327 416.814 204.364 418.185 205.673 419.241 C 206.859 420.281 208.179 421.164 209.564 421.919 C 211.204 422.802 212.909 423.581 214.63 424.237 C 216.68 425.015 218.772 425.691 220.88 426.268 C 226.047 427.645 231.305 428.597 236.599 429.055 C 243.009 429.649 249.452 429.7 255.854 429.213 C 257.906 429.057 259.979 428.851 262.023 428.572 C 265.752 428.166 269.405 427.077 272.765 425.372 C 275.695 423.822 278.226 421.566 280.082 418.819 C 281.755 416.259 282.863 413.373 283.371 410.361 C 283.84 407.475 283.961 404.541 283.691 401.637 C 283.367 398.024 282.777 394.457 281.897 390.96 C 281.08 387.655 280.166 384.358 279.18 381.09 C 278.654 379.336 278.152 377.58 277.672 375.798 C 277.297 374.426 276.97 373.025 276.713 371.595 C 276.321 369.339 276.05 367.074 275.9 364.775 C 275.398 358.498 275.534 352.196 276.289 345.97 C 276.572 343.54 277.029 341.146 277.66 338.788 C 277.87 337.985 278.132 337.228 278.467 336.466 C 278.589 336.137 278.787 335.827 278.985 335.517 C 279.811 334.422 280.456 333.218 280.897 331.906 C 281.344 330.668 281.689 329.389 281.933 328.068 C 282.45 325.177 282.744 322.255 282.814 319.301 C 283.02 312.944 282.856 306.592 282.3 300.244 C 282.17 298.534 282.018 296.85 281.863 295.141 L 281.673 292.968 C 281.491 290.574 281.409 288.196 281.398 285.789 C 281.391 283.43 281.408 281.069 281.449 278.707 C 281.601 273.584 281.581 268.473 281.388 263.352 C 281.288 260.41 280.745 257.478 279.795 254.675 C 278.531 250.986 276.884 247.425 274.933 244.059 C 273.268 241.236 271.463 238.498 269.493 235.871 C 267.584 233.349 265.599 230.873 263.546 228.464 C 264.809 227.29 266.004 226.039 267.148 224.744 C 269.794 221.717 272.123 218.418 274.068 214.904 C 275.652 212.129 276.927 209.182 277.899 206.134 C 278.37 204.575 278.768 203.02 279.089 201.423 C 279.463 199.552 279.813 197.682 280.111 195.791 C 280.813 191.437 281.412 187.042 281.89 182.655 C 282.791 174.796 283.496 166.928 283.977 159.027 C 284.089 157.273 284.08 155.529 283.97 153.768 C 283.814 151.716 283.44 149.704 282.848 147.734 C 282.269 145.935 281.449 144.203 280.394 142.612 C 279.398 141.14 278.215 139.804 276.872 138.628 C 275.634 137.543 274.284 136.589 272.868 135.738 C 270.21 134.072 267.955 131.884 266.256 129.261 C 265.011 127.439 264.027 125.474 263.303 123.391 C 262.422 120.852 261.876 118.191 261.672 115.503 C 261.525 113.253 261.548 110.966 261.772 108.737 C 262.2 104.035 262.507 99.342 262.666 94.636 C 262.828 89.659 262.718 84.654 262.365 79.692 C 262.165 76.734 261.794 73.788 261.302 70.877 C 260.818 68.063 260.142 65.312 259.297 62.6 C 258.459 59.985 257.382 57.461 256.024 55.107 C 254.688 52.727 253.002 50.593 250.995 48.755 C 246.987 45.177 242.372 42.333 237.402 40.327 C 233.523 38.754 229.564 37.433 225.526 36.364 C 224.246 36.018 222.965 35.649 221.704 35.228 C 221.503 35.17 221.325 35.085 221.148 35.025 C 220.928 34.723 220.735 34.442 220.54 34.137 C 219.708 32.898 218.901 31.657 218.119 30.414 C 216.223 27.462 214.305 24.535 212.34 21.637 C 210.07 18.296 207.662 15.062 205.092 11.965 C 203.819 10.415 202.503 8.942 201.095 7.55 C 199.788 6.199 198.366 4.956 196.854 3.818 C 195.417 2.698 193.823 1.762 192.122 1.056 C 190.317 0.259 188.349 -0.083 186.391 0.017 C 186.195 0.032 186.024 0.045 185.853 0.058 L 185.052 0.193 C 184.857 0.207 184.688 0.245 184.52 0.307 C 182.325 0.842 180.262 1.834 178.421 3.154 C 176.582 4.498 174.877 6.004 173.333 7.669 C 171.675 9.467 170.146 11.328 168.723 13.304 C 167.255 15.332 165.868 17.453 164.558 19.617 C 162.027 23.815 159.777 28.164 157.782 32.641 C 156.92 34.55 156.134 36.502 155.424 38.473 C 154.811 40.117 154.299 41.778 153.861 43.457 C 153.431 45.235 152.674 46.915 151.66 48.442 C 150.577 50.048 149.261 51.475 147.782 52.718 C 146.142 54.096 144.367 55.312 142.505 56.363 C 140.548 57.446 138.532 58.41 136.456 59.231 C 133.161 60.489 129.831 61.627 126.439 62.598 C 122.595 63.75 118.784 65.023 115.009 66.44 C 113.217 67.117 111.459 67.914 109.731 68.783 C 108.077 69.646 106.484 70.676 105.05 71.866 C 104.381 72.434 103.736 72.998 103.09 73.564 C 99.82 76.442 96.439 79.181 92.949 81.757 C 91.484 82.851 89.936 83.829 88.304 84.665 C 87.761 84.952 87.189 85.193 86.591 85.41 C 86.328 85.504 86.061 85.549 85.77 85.595 C 85.255 85.61 84.759 85.549 84.257 85.415 C 83.206 85.176 82.201 84.884 81.213 84.492 C 78.581 83.487 76.014 82.38 73.488 81.147 C 71.806 80.365 70.127 79.608 68.451 78.9 C 66.824 78.188 65.155 77.578 63.472 77.091 C 61.292 76.544 59.075 76.148 56.842 75.875 C 53.762 75.445 50.665 75.116 47.572 74.835 C 44.182 74.527 40.772 74.295 37.346 74.162 C 34.264 74.028 31.17 74.066 28.088 74.251 C 26.425 74.353 24.797 74.6 23.18 74.993 C 22.336 75.205 21.524 75.512 20.768 75.914 C 19.563 76.546 18.554 77.507 17.856 78.666 C 17.425 79.461 17.097 80.321 16.893 81.197 C 16.705 81.948 16.565 82.696 16.452 83.467 C 16.238 85.179 16.101 86.934 16.086 88.68 C 15.997 93.012 16.13 97.352 16.484 101.675 C 16.722 104.803 17.055 107.898 17.462 110.989 C 17.826 113.837 18.31 116.65 18.892 119.457 C 19.671 122.912 21.1 126.195 23.091 129.116 C 24.689 131.378 26.425 133.532 28.324 135.55 C 29.339 136.628 30.286 137.76 31.164 138.971 C 31.41 139.297 31.56 139.654 31.639 140.041 L 31.639 140.041 L 31.639 140.041 L 31.639 140.041 L 31.639 140.041 L 31.639 140.041 L 31.639 140.041 L 31.639 140.041 C 31.397 142.026 31.278 144.025 31.306 146.014 C 31.28 148.572 31.375 151.12 31.568 153.661 C 31.854 157.744 32.431 161.78 33.326 165.791 C 33.745 167.75 34.311 169.698 34.973 171.614 C 35.606 173.482 36.43 175.263 37.418 176.957 C 38.547 178.862 39.84 180.68 41.295 182.364 C 42.449 183.653 43.627 184.915 44.875 186.147 C 45.987 187.193 47.007 188.32 47.911 189.553 C 48.55 190.512 48.977 191.61 49.138 192.753 C 49.609 195.396 50.225 198.003 51.008 200.549 C 51.907 203.651 52.95 206.693 54.137 209.699 C 55.333 212.828 56.745 215.891 58.323 218.868 C 59.793 221.705 61.568 224.371 63.62 226.796 C 67.334 231.035 71.713 234.659 76.552 237.535 C 78.47 238.719 80.478 239.719 82.565 240.553 L 82.565 240.553 L 82.565 240.553 L 82.565 240.553 L 82.565 240.553 C 81.92 241.158 81.264 241.752 80.604 242.339 C 78.489 244.269 76.321 246.13 74.075 247.948 C 71.741 249.894 69.596 252.073 67.686 254.43 C 65.436 257.157 63.265 259.951 61.148 262.816 C 56.24 269.382 51.1 275.793 45.8 282.045 C 42.304 286.169 39.407 290.739 37.202 295.675 C 36.275 297.696 35.436 299.76 34.745 301.878 C 34.387 301.746 34.034 301.593 33.705 301.396 C 33.372 301.225 33.06 301.003 32.771 300.755 C 32.559 300.55 32.343 300.296 32.152 300.04 C 31.958 299.76 31.814 299.476 31.692 299.166 C 31.484 298.69 31.347 298.184 31.261 297.699 C 31.143 297.118 31.072 296.509 31.077 295.919 C 31.057 295.012 31.088 294.125 31.167 293.234 C 31.504 290.554 32.016 287.91 32.727 285.3 C 33.466 282.418 34.281 279.554 35.146 276.711 C 35.834 274.447 36.473 272.187 37.06 269.881 C 37.307 268.928 37.528 267.953 37.698 266.957 C 37.87 265.985 37.942 264.997 37.892 264.018 C 37.86 262.619 37.412 261.253 36.586 260.087 C 35.273 258.343 33.139 257.424 30.946 257.665 C 29.997 257.786 29.085 258.077 28.235 258.534 C 27.571 258.855 26.962 259.245 26.38 259.683 C 23.661 261.733 21.052 263.946 18.655 266.365 C 15.316 269.641 12.297 273.238 9.639 277.077 C 6.54 281.564 4.089 286.494 2.343 291.664 C 0.429 297.512 -0.332 303.664 0.132 309.773 C 0.136 309.822 0.139 309.871 0.143 309.919 L 0.354 312.042 C 0.357 312.091 0.361 312.139 0.363 312.164 C 0.663 314.5 1.108 316.801 1.721 319.04 C 2.268 321.063 2.984 323.048 3.841 324.949 C 4.638 326.707 5.554 328.407 6.611 330.023 C 7.639 331.591 8.807 333.05 10.067 334.429 C 11.351 335.806 12.75 337.076 14.238 338.216 C 15.78 339.426 17.432 340.48 19.152 341.431 C 21.024 342.468 22.984 343.352 25.004 344.058 C 26.349 344.545 27.707 344.973 29.081 345.328 Z  M 29.117 334.078 C 29.125 333.94 29.139 333.803 29.154 333.666 C 29.257 332.774 29.336 331.859 29.364 330.947 C 29.555 327.959 29.842 324.939 30.179 321.94 C 30.566 318.68 31.105 315.453 31.789 312.247 C 30.627 311.892 29.523 311.42 28.475 310.838 C 27.447 310.253 26.488 309.588 25.592 308.796 C 24.747 308.025 23.968 307.15 23.305 306.193 C 22.644 305.26 22.1 304.245 21.675 303.171 C 21.221 302.051 20.885 300.872 20.648 299.685 C 20.436 298.522 20.323 297.351 20.281 296.15 C 20.25 294.776 20.317 293.395 20.459 292.032 C 20.855 288.832 21.45 285.666 22.295 282.554 C 22.825 280.474 23.404 278.39 24.009 276.329 C 22.011 278.496 20.193 280.772 18.511 283.21 C 15.987 286.867 14.004 290.852 12.58 295.064 C 11.125 299.525 10.549 304.238 10.879 308.907 L 11.077 310.858 C 11.314 312.683 11.671 314.475 12.149 316.232 C 12.531 317.702 13.058 319.137 13.68 320.539 C 14.241 321.775 14.896 322.954 15.622 324.103 C 16.341 325.154 17.107 326.177 17.988 327.093 C 18.846 328.036 19.796 328.897 20.814 329.68 C 21.911 330.531 23.075 331.302 24.306 331.971 C 25.715 332.724 27.165 333.375 28.657 333.925 C 28.81 333.979 28.963 334.032 29.117 334.078 Z  M 57.779 410.428 C 58.491 411.139 59.295 411.75 60.148 412.288 C 62.289 413.624 64.539 414.78 66.898 415.732 C 69.052 416.6 71.223 417.344 73.457 417.961 C 76.568 418.806 79.721 419.549 82.888 420.144 C 84.459 420.443 86.071 420.639 87.674 420.714 C 89.007 420.785 90.354 420.732 91.67 420.582 C 92.864 420.443 94.052 420.229 95.206 419.896 C 96.313 419.591 97.39 419.214 98.41 418.718 C 99.477 418.219 100.491 417.651 101.448 416.988 C 102.5 416.269 103.495 415.457 104.435 414.574 C 105.513 413.559 106.512 412.475 107.43 411.299 C 108 410.569 108.547 409.819 109.076 409.059 L 109.076 409.059 C 109.041 408.644 109.059 408.221 109.13 407.803 C 109.412 406.012 109.647 404.249 109.831 402.466 C 109.988 400.979 110.097 399.496 110.18 398.016 C 110.27 396.289 110.484 394.577 110.796 392.857 C 111.13 390.792 111.516 388.747 111.926 386.701 C 112.841 381.937 113.66 377.181 114.378 372.408 C 114.584 370.918 114.941 369.466 115.446 368.026 C 116.009 366.386 116.676 364.812 117.493 363.275 C 118.243 361.817 119.071 360.427 119.998 359.054 C 121.103 357.422 122.287 355.857 123.521 354.313 C 125.367 352.084 127.318 349.945 129.35 347.898 C 132.07 345.21 134.87 342.613 137.78 340.155 C 138.864 339.213 140.279 338.761 141.689 338.875 C 143.123 338.987 144.451 339.648 145.369 340.734 C 146.313 341.841 146.763 343.232 146.651 344.666 C 146.539 346.1 145.852 347.406 144.768 348.348 C 142.092 350.641 139.473 353.052 136.96 355.553 C 135.179 357.335 133.476 359.185 131.88 361.149 C 130.823 362.434 129.841 363.737 128.913 365.11 C 128.228 366.121 127.62 367.175 127.038 368.251 C 126.481 369.325 126.023 370.417 125.643 371.552 C 125.358 372.335 125.15 373.162 125.041 373.981 C 124.286 378.929 123.455 383.834 122.501 388.748 C 122.111 390.719 121.746 392.713 121.406 394.705 C 121.185 396 121.014 397.315 120.942 398.623 C 120.847 400.277 120.728 401.957 120.559 403.616 C 120.485 404.284 120.404 404.948 120.318 405.611 C 125.988 407.613 131.765 409.304 137.613 410.7 C 144.47 412.318 151.419 413.534 158.406 414.281 C 161.454 414.614 164.506 414.677 167.563 414.47 C 170.963 414.26 174.342 413.782 177.677 413.037 C 181.542 412.154 185.338 411.005 189.012 409.546 C 193.734 407.664 198.338 405.495 202.768 402.996 C 202.8 402.984 202.832 402.973 202.866 402.964 C 204.575 400.956 206.088 398.798 207.386 396.501 C 208.641 394.267 209.566 391.887 210.138 389.385 C 210.393 388.211 210.571 386.993 210.651 385.783 C 210.753 384.546 210.756 383.293 210.662 382.047 C 210.582 380.677 210.382 379.34 210.109 378.009 C 209.772 376.486 209.364 374.994 208.835 373.535 C 207.292 369.081 205.605 364.663 203.799 360.303 C 203.045 358.468 202.197 356.689 201.255 354.966 C 200.857 354.259 200.437 353.579 199.97 352.926 C 199.941 352.879 199.891 352.859 199.863 352.811 C 198.784 351.885 198.094 350.562 197.986 349.144 C 197.879 347.728 198.337 346.316 199.261 345.214 C 200.186 344.136 201.51 343.446 202.927 343.338 C 204.369 343.228 205.78 343.686 206.858 344.612 C 207.568 345.221 208.185 345.912 208.734 346.657 C 209.447 347.635 210.09 348.667 210.689 349.752 C 211.83 351.828 212.879 353.985 213.784 356.202 C 215.652 360.729 217.402 365.314 219.008 369.96 C 219.692 371.85 220.234 373.799 220.653 375.758 C 221.038 377.596 221.302 379.444 221.418 381.303 C 221.552 383.062 221.539 384.833 221.402 386.588 C 221.288 388.317 221.025 390.033 220.663 391.731 C 219.874 395.257 218.559 398.65 216.784 401.807 C 215.356 404.318 213.719 406.715 211.888 408.953 L 211.888 408.953 C 212.163 409.641 212.416 410.334 212.669 411.041 C 213.275 411.585 213.948 412.025 214.666 412.413 C 215.896 413.081 217.17 413.673 218.485 414.162 C 220.181 414.82 221.92 415.376 223.701 415.855 C 228.242 417.083 232.901 417.908 237.601 418.313 C 243.393 418.856 249.221 418.904 255.036 418.462 C 256.943 418.317 258.845 418.123 260.743 417.881 C 263.205 417.62 265.586 416.923 267.786 415.797 C 269.107 415.082 270.26 414.085 271.1 412.842 C 271.935 411.55 272.489 410.107 272.72 408.615 C 273.06 406.623 273.128 404.602 272.951 402.601 C 272.694 399.548 272.171 396.541 271.429 393.574 C 270.648 390.414 269.796 387.284 268.848 384.186 C 268.314 382.334 267.782 380.507 267.272 378.653 C 266.823 376.942 266.422 375.228 266.093 373.484 C 265.648 370.863 265.325 368.234 265.149 365.593 C 264.595 358.631 264.752 351.639 265.578 344.72 C 265.918 341.769 266.481 338.827 267.247 335.967 C 267.596 334.736 267.995 333.526 268.495 332.333 C 268.971 331.166 269.602 330.086 270.338 329.096 C 270.516 328.862 270.622 328.632 270.701 328.381 C 270.964 327.648 271.178 326.894 271.317 326.146 C 271.752 323.779 271.989 321.402 272.051 318.988 C 272.237 313.027 272.079 307.067 271.552 301.11 C 271.426 299.449 271.302 297.812 271.127 296.154 C 271.125 296.13 271.125 296.13 271.123 296.105 L 270.929 293.884 C 270.927 293.859 270.926 293.834 270.924 293.81 C 270.722 291.146 270.618 288.5 270.611 285.822 C 270.597 283.366 270.631 280.905 270.689 278.443 C 270.809 273.544 270.779 268.631 270.63 263.752 C 270.558 261.84 270.195 259.975 269.591 258.178 C 268.551 255.16 267.223 252.239 265.613 249.485 C 264.172 247.015 262.59 244.628 260.868 242.351 C 259.054 239.941 257.177 237.592 255.224 235.306 C 250.739 238.409 245.971 241.046 240.975 243.175 C 238.905 244.069 236.798 244.795 234.63 245.377 C 232.557 245.903 230.472 246.283 228.35 246.494 C 226.299 246.674 224.213 246.71 222.136 246.548 C 220.013 246.414 217.923 246.082 215.847 245.601 C 211.518 244.578 207.361 242.928 203.529 240.688 C 201.446 239.47 199.404 238.151 197.453 236.726 C 197.109 238.35 196.741 239.975 196.323 241.58 C 195.363 245.437 194.053 249.223 192.439 252.885 C 190.93 256.318 189.138 259.575 187.04 262.684 C 185.114 265.484 182.928 268.083 180.477 270.432 C 177.915 272.937 174.9 274.985 171.595 276.44 C 168.621 277.723 165.434 278.481 162.209 278.727 C 157.486 278.987 152.748 278.414 148.222 277.062 C 144.524 275.942 140.884 274.621 137.352 273.096 C 136.389 272.702 135.425 272.308 134.437 271.916 C 132.744 271.308 130.989 270.852 129.219 270.519 C 126.723 270.021 124.231 269.571 121.719 269.172 C 119.353 268.762 116.987 268.352 114.618 267.893 C 112.323 267.453 110.023 266.94 107.763 266.301 C 105.63 265.726 103.554 264.925 101.583 263.895 C 100.584 263.357 99.626 262.717 98.783 261.97 C 97.786 261.137 96.971 260.117 96.369 258.983 C 95.564 257.447 94.949 255.823 94.479 254.162 C 94.042 252.623 93.632 251.106 93.268 249.56 C 93.009 248.415 92.711 247.272 92.391 246.131 L 92.391 246.131 C 90.893 247.551 89.384 248.957 87.847 250.341 C 85.594 252.38 83.286 254.35 80.925 256.274 C 79.146 257.761 77.529 259.432 76.068 261.239 C 73.908 263.861 71.825 266.526 69.797 269.26 C 64.755 276.009 59.482 282.603 54.023 289.039 C 51.18 292.376 48.811 296.119 47.001 300.116 C 45.255 303.984 43.889 307.995 42.874 312.103 C 41.997 315.757 41.321 319.471 40.893 323.214 C 40.563 325.992 40.307 328.764 40.15 331.553 C 40.087 332.663 40 333.776 39.863 334.892 C 39.746 335.934 39.704 336.993 39.734 338.048 C 39.741 339.743 39.745 341.414 39.8 343.105 C 39.902 346.071 39.933 349.067 39.891 352.069 C 39.879 355.142 39.62 358.209 39.089 361.247 C 38.72 363.168 37.9 365 36.692 366.566 C 35.665 367.922 34.427 369.097 33.054 370.111 C 31.798 371.042 30.463 371.905 29.094 372.648 C 27.773 373.388 26.425 374.08 25.077 374.772 C 23.157 375.705 21.272 376.757 19.468 377.927 C 18.883 378.315 18.351 378.749 17.848 379.254 C 17.619 379.468 17.418 379.729 17.269 380.035 C 16.889 380.851 16.66 381.728 16.582 382.643 C 16.399 384.107 16.388 385.583 16.501 387.073 C 16.754 390.396 17.544 393.678 18.812 396.777 C 19.357 398.136 20.07 399.434 20.9 400.648 C 21.457 401.516 22.179 402.272 22.988 402.898 C 23.352 403.166 23.739 403.407 24.147 403.597 C 24.914 403.981 25.699 404.29 26.507 404.572 C 27.163 404.793 27.818 405.014 28.495 405.183 C 29.372 405.411 30.274 405.638 31.172 405.815 C 33.818 406.352 36.502 406.737 39.174 406.977 C 41.679 407.187 44.18 407.351 46.679 407.439 C 46.44 404.791 46.311 402.127 46.27 399.458 C 46.215 395.825 46.433 392.22 46.872 388.623 C 47.258 385.62 47.868 382.649 48.679 379.737 C 49.367 377.153 50.307 374.648 51.426 372.229 C 52.91 369.118 54.446 366.052 56.033 363.007 C 57.104 360.935 58.151 358.864 59.17 356.747 C 60.063 354.91 60.825 352.984 61.513 351.039 C 62.177 349.097 62.712 347.09 63.048 345.049 C 63.455 342.634 63.686 340.184 63.696 337.726 C 63.797 332.582 63.796 327.396 63.699 322.243 C 63.674 320.942 63.575 319.647 63.379 318.359 C 63.198 316.948 63.555 315.495 64.428 314.372 C 65.275 313.226 66.568 312.464 67.98 312.284 C 69.389 312.078 70.818 312.436 71.965 313.308 C 73.113 314.179 73.873 315.448 74.054 316.86 C 74.308 318.585 74.44 320.32 74.472 322.038 C 74.578 327.314 74.586 332.597 74.497 337.887 C 74.455 340.889 74.191 343.883 73.681 346.871 C 73.241 349.485 72.575 352.042 71.71 354.565 C 70.905 356.912 69.948 359.196 68.888 361.415 C 67.828 363.634 66.717 365.832 65.58 368.007 C 64.055 370.9 62.607 373.837 61.187 376.82 C 60.321 378.68 59.609 380.626 59.072 382.609 C 58.396 385.044 57.894 387.49 57.569 389.997 C 57.188 393.073 57.007 396.184 57.047 399.302 C 57.104 403.017 57.348 406.738 57.779 410.428 L 57.779 410.428 Z  M 85.745 85.597 L 85.77 85.595 L 85.745 85.597 L 85.745 85.597 L 85.892 85.586 C 85.843 85.59 85.818 85.592 85.77 85.595 C 85.745 85.597 85.721 85.599 85.672 85.603 L 85.745 85.597 L 85.745 85.597 L 85.745 85.597 L 85.745 85.597 L 85.745 85.597 L 85.745 85.597 L 85.745 85.597 L 85.745 85.597 L 85.745 85.597 L 85.745 85.597 L 85.745 85.597 Z  M 182.086 47.161 C 182.181 47.129 182.302 47.096 182.398 47.064 C 186.907 45.935 191.488 45.095 196.09 44.524 C 196.456 44.496 196.821 44.444 197.186 44.391 C 196.692 43.397 196.176 42.428 195.659 41.435 C 194.341 38.98 192.93 36.58 191.427 34.262 C 190.421 32.667 189.323 31.153 188.108 29.721 C 188.003 29.951 187.873 30.182 187.767 30.411 C 186.72 32.481 185.773 34.568 184.903 36.699 C 184.031 38.805 183.288 41 182.696 43.232 C 182.47 44.134 182.294 45.056 182.168 45.975 C 182.099 46.374 182.08 46.768 182.086 47.161 L 182.086 47.161 L 182.086 47.161 L 182.086 47.161 L 182.086 47.161 L 182.086 47.161 L 182.086 47.161 L 182.086 47.161 L 182.086 47.161 L 182.086 47.161 L 182.086 47.161 Z  M 47.973 115.993 C 48.016 115.916 48.084 115.837 48.127 115.76 C 50.833 111.918 53.776 108.278 56.98 104.839 C 57.205 104.577 57.433 104.338 57.683 104.073 C 56.997 103.781 56.314 103.514 55.63 103.246 C 53.475 102.378 51.325 101.583 49.133 100.864 C 47.013 100.141 44.83 99.545 42.631 99.073 C 42.18 98.96 41.707 98.873 41.233 98.786 C 41.389 99.536 41.591 100.258 41.793 100.98 C 42.499 103.802 43.399 106.584 44.466 109.305 C 44.955 110.57 45.516 111.805 46.126 113.037 C 46.591 113.985 47.177 114.899 47.809 115.784 C 47.864 115.854 47.918 115.924 47.973 115.993 L 47.973 115.993 L 47.973 115.993 L 47.973 115.993 L 47.973 115.993 L 47.973 115.993 L 47.973 115.993 L 47.973 115.993 L 47.973 115.993 L 47.973 115.993 Z  M 120.316 157.248 C 120.324 154.402 118.02 152.084 115.173 152.077 C 112.327 152.068 110.01 154.373 110.002 157.219 C 109.994 160.065 112.298 162.382 115.145 162.39 C 117.991 162.398 120.308 160.094 120.316 157.248 L 120.316 157.248 L 120.316 157.248 L 120.316 157.248 L 120.316 157.248 L 120.316 157.248 L 120.316 157.248 L 120.316 157.248 L 120.316 157.248 Z  M 202.685 115.795 C 202.693 112.949 200.389 110.632 197.543 110.623 C 194.697 110.616 192.38 112.92 192.372 115.766 C 192.364 118.612 194.668 120.929 197.514 120.937 C 200.36 120.945 202.677 118.641 202.685 115.795 L 202.685 115.795 L 202.685 115.795 L 202.685 115.795 L 202.685 115.795 L 202.685 115.795 L 202.685 115.795 L 202.685 115.795 Z  M 208.201 42.522 C 207.252 40.382 206.233 38.297 205.094 36.246 C 203.691 33.624 202.165 31.012 200.523 28.483 C 198.954 25.948 197.152 23.578 195.116 21.374 C 194.178 20.339 193.126 19.436 191.962 18.664 C 190.403 17.554 188.543 17.007 186.631 17.079 C 184.214 17.287 182.055 18.631 180.813 20.716 C 179.828 22.314 178.919 23.932 178.113 25.615 C 176.959 27.89 175.908 30.231 174.932 32.591 C 173.876 35.178 172.994 37.801 172.266 40.51 C 171.922 41.814 171.679 43.135 171.488 44.502 C 171.293 45.819 171.248 47.174 171.326 48.519 C 171.391 49.694 171.627 50.856 172.03 51.956 C 172.497 53.248 173.251 54.444 174.211 55.428 C 175.298 56.475 176.609 57.236 178.067 57.666 C 179.397 58.032 180.782 58.147 182.173 58.017 C 183.175 57.941 184.17 57.767 185.157 57.495 C 189.183 56.477 193.255 55.725 197.396 55.238 C 198.491 55.105 199.61 54.947 200.727 54.764 C 201.772 54.61 202.809 54.36 203.841 54.035 C 205.329 53.553 206.66 52.641 207.674 51.434 C 208.861 49.918 209.427 47.983 209.207 46.058 C 209.065 44.84 208.728 43.637 208.201 42.522 L 208.201 42.522 L 208.201 42.522 L 208.201 42.522 L 208.201 42.522 L 208.201 42.522 L 208.201 42.522 L 208.201 42.522 L 208.201 42.522 L 208.201 42.522 L 208.201 42.522 Z  M 64.82 95.47 C 63.086 94.643 61.357 93.89 59.559 93.191 C 57.277 92.259 54.902 91.407 52.532 90.628 C 50.036 89.786 47.525 89.092 44.951 88.526 C 43.752 88.273 42.532 88.071 41.316 87.918 C 40.176 87.783 39.018 87.748 37.868 87.811 C 36.003 87.854 34.204 88.434 32.664 89.509 C 30.595 91.067 29.486 93.609 29.78 96.192 L 29.795 96.387 C 29.801 96.46 29.808 96.558 29.838 96.63 C 30.193 99.035 30.719 101.428 31.365 103.788 C 32.197 106.969 33.222 110.11 34.415 113.19 C 35.028 114.79 35.711 116.335 36.491 117.873 C 37.217 119.342 38.086 120.751 39.072 122.077 C 40.063 123.476 41.261 124.687 42.662 125.662 C 44.427 126.904 46.538 127.505 48.665 127.368 C 50.496 127.205 52.239 126.532 53.702 125.413 C 55.002 124.405 56.138 123.188 57.066 121.815 C 59.439 118.439 62.047 115.243 64.838 112.205 C 65.999 110.986 67.081 109.699 68.11 108.368 C 68.669 107.637 69.127 106.865 69.507 106.05 C 70.057 104.877 70.278 103.583 70.204 102.286 C 70.042 100.48 69.228 98.821 67.929 97.568 C 67.003 96.705 65.966 95.997 64.82 95.47 L 64.82 95.47 L 64.82 95.47 L 64.82 95.47 L 64.82 95.47 L 64.82 95.47 L 64.82 95.47 L 64.82 95.47 L 64.82 95.47 L 64.82 95.47 Z  M 129.911 169.339 C 132.548 155.928 127.635 143.651 118.944 141.941 C 110.254 140.232 101.056 149.733 98.418 163.145 C 95.78 176.557 100.694 188.834 109.385 190.543 C 118.075 192.253 127.272 182.752 129.911 169.339 L 129.911 169.339 L 129.911 169.339 L 129.911 169.339 L 129.911 169.339 L 129.911 169.339 L 129.911 169.339 L 129.911 169.339 L 129.911 169.339 Z  M 215.05 111.938 C 205.707 101.961 192.873 98.776 186.408 104.83 C 179.943 110.885 182.28 123.9 191.623 133.877 C 200.967 143.854 213.802 147.039 220.266 140.985 C 226.731 134.931 224.394 121.916 215.05 111.938 L 215.05 111.938 L 215.05 111.938 L 215.05 111.938 L 215.05 111.938 L 215.05 111.938 L 215.05 111.938 L 215.05 111.938 Z  M 188.848 217.576 C 188.657 224.782 187.655 231.939 185.873 238.934 C 185.042 242.216 183.936 245.446 182.576 248.572 C 181.338 251.369 179.847 254.063 178.123 256.603 C 176.62 258.806 174.907 260.853 172.983 262.695 C 171.337 264.319 169.397 265.622 167.304 266.543 C 165.448 267.348 163.518 267.814 161.514 267.966 C 158.063 268.155 154.614 267.728 151.319 266.726 C 148.001 265.749 144.739 264.547 141.562 263.167 C 140.47 262.709 139.355 262.253 138.24 261.821 C 135.967 261.011 133.633 260.378 131.264 259.919 C 128.669 259.403 126.077 258.937 123.465 258.521 C 121.176 258.154 118.908 257.737 116.614 257.297 C 114.596 256.934 112.593 256.448 110.608 255.885 C 109.205 255.525 107.863 255.013 106.608 254.346 C 106.329 254.22 106.069 254.043 105.832 253.84 C 105.423 252.987 105.086 252.103 104.847 251.212 C 104.449 249.866 104.099 248.492 103.775 247.14 C 103.442 245.666 103.06 244.196 102.655 242.752 C 102.218 241.212 101.662 239.707 100.964 238.285 C 100.146 236.578 98.975 235.069 97.532 233.877 C 95.78 232.486 93.608 231.717 91.396 231.713 C 90.065 231.667 88.742 231.399 87.5 230.903 C 85.631 230.235 83.82 229.365 82.118 228.314 C 78.256 226.003 74.768 223.122 71.785 219.761 C 70.272 217.959 68.966 215.969 67.872 213.865 C 66.493 211.242 65.255 208.535 64.16 205.767 C 63.093 203.046 62.146 200.293 61.343 197.478 C 60.688 195.341 60.179 193.168 59.792 190.985 C 59.338 188.243 58.303 185.618 56.728 183.329 C 55.412 181.537 53.959 179.878 52.346 178.378 C 51.336 177.374 50.374 176.366 49.458 175.305 C 48.433 174.105 47.5 172.824 46.71 171.483 C 46.087 170.4 45.558 169.26 45.149 168.087 C 44.641 166.578 44.205 165.038 43.84 163.468 C 43.084 159.987 42.568 156.438 42.322 152.869 C 42.147 150.572 42.072 148.292 42.07 146.007 C 42.075 144.458 42.154 142.904 42.332 141.366 C 42.445 140.596 42.459 139.809 42.4 139.027 C 42.123 136.688 41.24 134.445 39.819 132.563 C 38.693 131.002 37.477 129.546 36.166 128.146 C 34.643 126.542 33.258 124.804 31.991 123.008 C 30.774 121.232 29.91 119.234 29.43 117.132 C 28.897 114.641 28.461 112.143 28.146 109.611 C 27.752 106.692 27.456 103.766 27.233 100.834 C 26.906 96.853 26.774 92.857 26.864 88.869 C 26.869 87.639 26.947 86.405 27.101 85.189 L 27.101 85.189 L 27.101 85.189 L 27.101 85.189 L 27.101 85.189 L 27.101 85.189 C 27.635 85.099 28.172 85.058 28.71 85.017 C 31.448 84.834 34.175 84.823 36.912 84.935 C 40.141 85.058 43.377 85.279 46.619 85.573 C 49.564 85.841 52.512 86.157 55.444 86.573 C 57.205 86.784 58.973 87.091 60.702 87.525 C 61.857 87.855 63.02 88.283 64.114 88.765 C 65.714 89.455 67.292 90.17 68.846 90.887 C 71.653 92.247 74.473 93.458 77.358 94.566 C 78.802 95.12 80.259 95.55 81.736 95.904 C 83.239 96.282 84.799 96.433 86.367 96.363 C 86.416 96.36 86.465 96.356 86.514 96.352 L 86.563 96.348 C 86.587 96.346 86.636 96.343 86.66 96.341 C 87.831 96.227 89.016 95.965 90.117 95.587 C 91.219 95.208 92.266 94.76 93.283 94.24 C 95.41 93.12 97.428 91.86 99.335 90.438 C 103.083 87.695 106.693 84.742 110.17 81.676 C 110.77 81.164 111.369 80.627 111.969 80.114 C 112.804 79.461 113.693 78.877 114.639 78.387 C 116.012 77.693 117.39 77.073 118.823 76.521 C 122.335 75.198 125.882 74.018 129.488 72.958 C 133.165 71.868 136.784 70.659 140.366 69.28 C 142.895 68.277 145.361 67.107 147.742 65.771 C 150.219 64.403 152.554 62.8 154.702 60.99 C 156.967 59.098 158.939 56.908 160.598 54.496 C 162.32 51.932 163.579 49.084 164.333 46.078 C 164.65 44.751 165.068 43.466 165.539 42.226 C 166.167 40.458 166.872 38.733 167.649 37.003 C 169.429 32.935 171.489 28.994 173.804 25.181 C 174.937 23.276 176.172 21.413 177.483 19.593 C 178.639 17.981 179.899 16.46 181.261 14.98 C 182.305 13.844 183.479 12.796 184.738 11.89 C 185.413 11.396 186.172 11.044 186.966 10.811 L 187.11 10.776 C 187.381 10.78 187.657 10.857 187.886 10.962 C 188.749 11.315 189.572 11.793 190.304 12.376 C 191.399 13.202 192.452 14.13 193.412 15.114 C 194.608 16.301 195.71 17.544 196.79 18.814 C 199.122 21.684 201.336 24.636 203.413 27.698 C 205.322 30.502 207.183 33.334 208.998 36.194 C 209.835 37.507 210.697 38.818 211.556 40.104 C 211.888 40.595 212.221 41.086 212.575 41.55 C 212.96 42.087 213.394 42.619 213.871 43.074 C 214.582 43.708 215.385 44.237 216.251 44.638 C 216.914 44.956 217.598 45.224 218.28 45.467 C 219.766 45.944 221.25 46.396 222.78 46.796 C 226.367 47.752 229.895 48.909 233.345 50.318 C 237.172 51.846 240.681 54.037 243.763 56.752 C 244.9 57.82 245.879 59.048 246.646 60.416 C 247.613 62.136 248.415 63.968 249 65.84 C 249.736 68.094 250.278 70.363 250.676 72.692 C 251.117 75.264 251.436 77.844 251.61 80.46 C 251.935 85.056 252.042 89.693 251.876 94.301 C 251.748 98.759 251.449 103.23 251.026 107.686 C 250.75 110.533 250.723 113.41 250.916 116.271 C 251.193 119.912 251.932 123.493 253.128 126.941 C 254.137 129.863 255.527 132.632 257.244 135.18 C 259.83 139.137 263.254 142.465 267.277 144.961 C 268.153 145.484 269.009 146.083 269.798 146.76 C 270.429 147.302 270.968 147.925 271.439 148.626 C 271.912 149.352 272.291 150.134 272.549 150.95 C 272.907 152.102 273.12 153.29 273.211 154.488 C 273.286 155.785 273.311 157.085 273.212 158.371 C 272.741 166.074 272.072 173.768 271.18 181.43 C 270.716 185.668 270.127 189.89 269.464 194.094 C 269.203 195.834 268.866 197.555 268.529 199.252 C 268.279 200.5 267.953 201.704 267.602 202.91 C 266.847 205.254 265.864 207.516 264.651 209.672 C 263.074 212.52 261.211 215.168 259.062 217.617 C 256.37 220.673 253.334 223.41 250.026 225.8 C 245.877 228.769 241.398 231.272 236.709 233.275 C 235.139 233.96 233.535 234.524 231.871 234.946 C 230.401 235.328 228.875 235.616 227.362 235.755 C 225.873 235.893 224.375 235.909 222.892 235.8 C 221.361 235.695 219.818 235.444 218.316 235.091 C 215.015 234.335 211.872 233.075 208.966 231.378 C 202.348 227.521 196.463 222.547 191.569 216.664 C 192.505 216.302 193.409 215.854 194.279 215.341 C 197.236 213.494 199.944 211.298 202.357 208.779 C 204.844 206.255 207.117 203.502 209.105 200.55 C 211.032 197.773 212.673 194.798 213.96 191.677 C 214.563 190.231 215.013 188.722 215.364 187.196 C 215.693 185.696 215.822 184.163 215.729 182.622 C 215.619 179.878 214.413 177.266 212.379 175.405 C 211.43 174.568 210.369 173.862 209.223 173.335 C 208.051 172.785 206.815 172.363 205.539 172.067 C 204.413 171.809 203.246 171.652 202.111 171.59 C 200.728 171.499 199.377 171.503 198.006 171.583 C 195.879 171.72 193.762 172.004 191.681 172.432 C 188.826 173.018 185.982 173.75 183.171 174.603 L 183.171 174.603 C 178.315 176.029 173.521 177.622 168.763 179.36 C 165.847 180.442 163.017 181.689 160.249 183.103 C 158.545 183.97 156.873 184.933 155.284 186.012 C 154.115 186.789 153.027 187.683 152.021 188.669 C 151.336 189.36 150.682 190.122 150.129 190.926 C 149.596 191.679 149.166 192.498 148.816 193.385 C 148.449 194.371 148.209 195.422 148.169 196.506 C 148.105 197.617 148.238 198.713 148.564 199.769 C 149.078 201.352 149.854 202.841 150.863 204.141 C 151.846 205.443 152.967 206.611 154.203 207.672 C 156.857 209.928 159.804 211.842 162.965 213.346 C 166.336 215.007 169.873 216.287 173.504 217.166 C 177.162 218.092 180.925 218.445 184.691 218.207 C 186.1 218.142 187.493 217.931 188.848 217.576 L 188.848 217.576 L 188.848 217.576 L 188.848 217.576 L 188.848 217.576 L 188.848 217.576 Z " fill-rule="evenodd" fill="rgb(100,0,134)"/></svg>