<?xml version="1.0" encoding="UTF-8" standalone="no"?><!-- Generator: Gravit.io --><svg xmlns="http://www.w3.org/2000/svg" xmlns:xlink="http://www.w3.org/1999/xlink" style="isolation:isolate" viewBox="100.582 6207.105 78.672 78.601" width="78.672pt" height="78.601pt"><path d=" M 140.548 6207.11 C 116.418 6206.749 97.058 6228.353 101.124 6253.08 C 103.893 6269.858 117.663 6283.055 134.507 6285.332 C 145.859 6286.868 156.468 6283.592 164.505 6277.141 L 160.409 6272.02 C 153.703 6277.396 144.886 6280.175 135.326 6278.881 C 121.388 6277 109.96 6265.929 107.68 6252.057 C 104.253 6231.184 120.248 6213.367 140.443 6213.662 C 157.657 6213.918 172.171 6228.189 172.695 6245.403 C 172.708 6245.773 172.695 6246.13 172.695 6246.527 C 172.682 6249.989 171.294 6253.305 168.836 6255.743 C 166.379 6258.182 163.052 6259.545 159.59 6259.531 C 155.93 6259.531 153.037 6256.638 153.037 6252.978 L 153.037 6226.767 L 146.485 6226.767 L 146.485 6229.326 C 144.075 6227.667 141.22 6226.775 138.294 6226.767 C 130.163 6226.796 123.579 6233.38 123.551 6241.511 L 123.551 6251.34 C 123.551 6259.442 130.192 6266.083 138.294 6266.083 C 142.71 6266.083 146.639 6264.075 149.352 6260.962 C 151.756 6264.026 155.429 6266.083 159.59 6266.083 C 170.353 6266.083 179.209 6257.303 179.248 6246.527 C 179.248 6246.091 179.261 6245.672 179.248 6245.197 C 178.622 6224.438 161.304 6207.417 140.545 6207.11 L 140.548 6207.11 Z  M 138.294 6233.32 C 142.848 6233.32 146.485 6236.957 146.485 6241.511 L 146.485 6251.34 C 146.485 6255.894 142.848 6259.531 138.294 6259.531 C 133.74 6259.531 130.103 6255.894 130.103 6251.34 L 130.103 6241.511 C 130.103 6236.957 133.74 6233.32 138.294 6233.32 Z " fill="rgb(212,0,103)"/></svg>