<?xml version="1.0" encoding="UTF-8" standalone="no"?><!-- Generator: Gravit.io --><svg xmlns="http://www.w3.org/2000/svg" xmlns:xlink="http://www.w3.org/1999/xlink" style="isolation:isolate" viewBox="310.786 5666.896 140.915 140.915" width="140.915pt" height="140.915pt"><clipPath id="_clipPath_fmrNxnUEIfXMDEqZP2T15jKRfqUHVgVC"><path d="M 345 5666.9 L 417.49 5666.9 C 436.371 5666.9 451.7 5682.229 451.7 5701.11 L 451.7 5773.6 C 451.7 5792.481 436.371 5807.81 417.49 5807.81 L 345 5807.81 C 326.119 5807.81 310.79 5792.481 310.79 5773.6 L 310.79 5701.11 C 310.79 5682.229 326.119 5666.9 345 5666.9 Z" style="stroke:none;fill:#FFFFFF;stroke-miterlimit:10;"/></clipPath><g clip-path="url(#_clipPath_fmrNxnUEIfXMDEqZP2T15jKRfqUHVgVC)"><path d=" M 451.701 5666.896 L 310.786 5666.896 L 310.786 5807.811 L 451.701 5807.811 L 451.701 5666.896 Z  M 426.322 5704.929 L 416.472 5704.929 C 410.145 5704.929 409.427 5707.05 409.427 5711.975 L 409.427 5721.148 L 424.237 5721.148 L 423.518 5737.353 L 410.145 5737.353 L 410.145 5786.673 L 387.571 5786.673 L 387.571 5737.353 L 379.13 5737.353 L 379.13 5720.458 L 387.585 5720.458 L 387.585 5709.889 C 387.585 5695.798 393.221 5688.033 409.434 5688.033 L 426.329 5688.033 L 426.322 5704.929 Z " fill="rgb(212,0,103)"/></g></svg>