<?xml version="1.0" encoding="UTF-8" standalone="no"?><!-- Generator: Gravit.io --><svg xmlns="http://www.w3.org/2000/svg" xmlns:xlink="http://www.w3.org/1999/xlink" style="isolation:isolate" viewBox="308.958 5834.439 140.915 140.915" width="140.915pt" height="140.915pt"><clipPath id="_clipPath_xQfsKfpgMhH0EVBtXVCjcgYsL7pr9ayt"><path d="M 343.17 5834.44 L 415.66 5834.44 C 434.541 5834.44 449.87 5849.769 449.87 5868.65 L 449.87 5941.14 C 449.87 5960.021 434.541 5975.35 415.66 5975.35 L 343.17 5975.35 C 324.289 5975.35 308.96 5960.021 308.96 5941.14 L 308.96 5868.65 C 308.96 5849.769 324.289 5834.44 343.17 5834.44 Z" style="stroke:none;fill:#FFFFFF;stroke-miterlimit:10;"/></clipPath><g clip-path="url(#_clipPath_xQfsKfpgMhH0EVBtXVCjcgYsL7pr9ayt)"><path d=" M 308.958 5834.439 L 308.958 5975.353 L 449.873 5975.353 L 449.873 5834.439 L 308.958 5834.439 Z  M 426.387 5850.096 C 430.693 5850.096 434.216 5853.619 434.216 5857.925 C 434.216 5862.23 430.693 5865.753 426.387 5865.753 C 422.082 5865.753 418.559 5862.23 418.559 5857.925 C 418.559 5853.619 422.082 5850.096 426.387 5850.096 Z  M 379.416 5865.753 C 401.034 5865.753 418.559 5883.278 418.559 5904.896 C 418.559 5926.514 401.034 5944.039 379.416 5944.039 C 357.798 5944.039 340.273 5926.514 340.273 5904.896 C 340.273 5883.278 357.798 5865.753 379.416 5865.753 Z  M 379.416 5881.41 C 371.022 5881.413 363.268 5885.894 359.074 5893.164 C 354.879 5900.434 354.882 5909.39 359.081 5916.657 C 363.281 5923.925 371.038 5928.4 379.431 5928.398 C 392.407 5928.393 402.922 5917.871 402.917 5904.896 C 402.913 5891.921 392.391 5881.406 379.416 5881.41 L 379.416 5881.41 Z " fill="rgb(212,0,103)"/></g></svg>