<?xml version="1.0" encoding="UTF-8" standalone="no"?><!-- Generator: Gravit.io --><svg xmlns="http://www.w3.org/2000/svg" xmlns:xlink="http://www.w3.org/1999/xlink" style="isolation:isolate" viewBox="0 0 580.516 204.589" width="580.516pt" height="204.589pt"><clipPath id="_clipPath_SB7NEGnU3bVHh16cBgXaqjYc61FFJLEJ"><path d=" M 0 204.589 L 580.516 204.589 L 580.516 0 L 0 0 L 0 204.589 Z " fill="rgb(255,255,255)"/></clipPath><g clip-path="url(#_clipPath_SB7NEGnU3bVHh16cBgXaqjYc61FFJLEJ)"><path d=" M 43.382 98.719 C 45.699 98.687 47.398 99.06 48.43 99.741 C 49.431 100.415 50.428 101.977 51.326 104.407 L 57.515 121.187 L 64.783 102.51 C 65.394 100.924 66.015 99.933 66.599 99.448 C 67.161 98.953 68.281 98.719 69.894 98.719 L 75.279 98.719 C 77.06 98.687 77.973 99.4 77.973 100.762 C 77.96 101.622 77.703 102.705 77.163 103.969 L 53.343 164.952 C 52.354 167.568 51.324 169.888 50.248 171.882 C 49.166 173.855 47.869 175.578 46.344 176.988 C 44.816 178.376 42.98 179.444 40.826 180.124 C 38.642 180.804 36.026 181.146 32.887 181.146 C 28.203 181.137 24.585 179.76 21.983 176.988 C 19.366 174.194 18.082 171.08 18.082 167.58 C 18.066 164.155 18.957 161.135 20.707 158.46 C 22.433 155.773 25.17 154.449 28.846 154.449 C 29.83 154.44 30.933 154.619 32.144 154.96 C 33.353 155.287 34.365 155.665 35.174 156.054 C 36.059 156.528 36.7 156.782 37.058 156.782 C 37.588 156.762 37.865 156.393 37.865 155.616 C 37.855 155.097 37.775 154.52 37.596 153.791 C 37.396 153.039 37.237 152.455 37.058 151.969 L 20.773 106.594 C 20.223 105.014 19.966 103.725 19.966 102.655 C 19.956 100.02 21.984 98.719 26.021 98.719 L 43.382 98.719 Z " fill="rgb(212,0,103)"/><path d=" M 144.324 149.78 C 139.808 149.76 136.091 149.051 133.085 147.593 C 130.063 146.111 127.859 144.044 126.424 141.319 C 125.048 142.258 123.598 143.263 121.983 144.237 C 120.353 145.205 118.596 146.11 116.666 146.937 C 114.726 147.758 112.584 148.443 110.207 148.977 C 107.806 149.494 105.205 149.78 102.332 149.78 C 96.109 149.76 91.341 148.419 87.932 145.696 C 84.491 142.948 82.819 139.131 82.819 134.169 L 82.819 105.283 C 82.791 103.025 83.089 101.368 83.627 100.249 C 84.135 99.121 85.646 98.571 88.068 98.571 L 110.276 98.571 C 113.042 98.555 114.782 99.13 115.455 100.249 C 116.121 101.358 116.465 103.046 116.465 105.283 L 116.465 125.854 C 116.455 127.593 116.913 128.917 117.81 129.793 C 118.682 130.645 119.649 131.107 120.637 131.107 C 121.713 131.078 122.678 130.669 123.53 129.793 C 124.351 128.893 124.808 127.507 124.808 125.563 L 124.808 105.283 C 124.784 103.025 125.078 101.368 125.616 100.249 C 126.128 99.121 127.635 98.571 130.057 98.571 L 152.265 98.571 C 155.036 98.555 156.773 99.13 157.444 100.249 C 158.114 101.358 158.454 103.046 158.454 105.283 L 158.454 125.854 C 158.448 127.593 158.701 129.014 159.194 130.085 C 159.668 131.133 160.294 131.933 161.013 132.418 C 161.435 132.677 161.909 132.88 162.358 132.929 C 162.799 132.974 163.189 133.074 163.502 133.221 C 163.793 133.368 164.085 133.636 164.31 134.024 C 164.51 134.412 164.648 135.045 164.648 135.921 L 164.648 139.715 C 164.643 140.948 164.401 141.952 163.907 142.633 C 163.389 143.31 162.807 143.897 162.088 144.382 C 161.083 144.944 160.069 145.596 158.993 146.277 C 157.898 146.939 156.707 147.541 155.362 148.029 C 154.007 148.512 152.445 148.929 150.651 149.269 C 148.851 149.594 146.747 149.78 144.324 149.78 Z " fill="rgb(212,0,103)"/><path d=" M 223.029 97.113 C 227.305 97.083 230.97 97.819 233.93 99.229 C 236.859 100.637 239.134 102.609 240.662 105.138 C 243.791 102.603 247.119 100.639 250.619 99.229 C 254.091 97.816 258.022 97.113 262.327 97.113 C 268.488 97.083 273.319 98.475 276.729 101.199 C 280.108 103.896 281.844 107.763 281.844 112.723 L 281.844 141.612 C 281.841 143.817 281.575 145.524 281.037 146.643 C 280.498 147.755 279.017 148.321 276.594 148.321 L 254.388 148.321 C 251.589 148.321 249.88 147.762 249.207 146.643 C 248.51 145.517 248.198 143.847 248.198 141.612 L 248.198 119.58 C 248.176 118.005 247.928 116.883 247.39 116.154 C 246.833 115.413 246.223 115.058 245.504 115.058 C 244.764 115.046 244.115 115.448 243.487 116.226 C 242.842 117.002 242.546 118.122 242.546 119.58 L 242.546 141.612 C 242.542 143.817 242.276 145.524 241.738 146.643 C 241.198 147.755 239.719 148.321 237.296 148.321 L 215.088 148.321 C 212.29 148.321 210.581 147.762 209.908 146.643 C 209.211 145.517 208.899 143.847 208.899 141.612 L 208.899 119.144 C 208.878 117.677 208.607 116.616 208.024 115.935 C 207.411 115.249 206.79 114.913 206.071 114.913 C 205.342 114.883 204.704 115.278 204.121 116.008 C 203.509 116.708 203.246 117.783 203.246 119.144 L 203.246 141.612 C 203.242 143.817 202.976 145.524 202.438 146.643 C 201.898 147.755 200.419 148.321 197.998 148.321 L 175.79 148.321 C 172.99 148.321 171.281 147.762 170.608 146.643 C 169.912 145.517 169.601 143.847 169.601 141.612 L 169.601 121.041 C 169.579 118.796 169.264 117.124 168.591 116.005 C 167.899 114.858 167.043 114.23 165.966 114.037 C 164.968 113.837 164.305 113.599 163.946 113.308 C 163.583 112.988 163.407 112.239 163.407 110.974 L 163.407 107.618 C 163.383 105.25 164.26 103.58 165.966 102.51 C 167.033 101.8 168.119 101.174 169.194 100.541 C 170.251 99.902 171.481 99.326 172.827 98.791 C 174.142 98.233 175.721 97.842 177.471 97.551 C 179.209 97.249 181.307 97.113 183.73 97.113 C 188.006 97.083 191.671 97.819 194.632 99.229 C 197.56 100.637 199.835 102.609 201.362 105.138 C 203.955 102.312 207.238 100.275 211.185 99.01 C 215.116 97.716 219.081 97.113 223.029 97.113 Z " fill="rgb(212,0,103)"/><path d=" M 324.546 141.612 C 324.542 143.817 324.276 145.524 323.738 146.643 C 323.198 147.755 321.719 148.321 319.298 148.321 L 297.09 148.321 C 294.29 148.321 292.581 147.762 291.908 146.643 C 291.212 145.517 290.901 143.847 290.901 141.612 L 290.901 68.374 C 290.879 66.41 290.631 64.944 290.093 63.923 C 289.535 62.901 288.836 62.148 287.938 61.66 C 287.489 61.453 287.064 61.321 286.66 61.224 C 286.248 61.125 285.919 61.005 285.651 60.86 C 285.376 60.701 285.157 60.447 284.977 60.057 C 284.783 59.655 284.707 59.084 284.707 58.307 L 284.707 54.368 C 284.683 53.185 284.931 52.3 285.38 51.668 C 285.814 51.02 286.413 50.476 287.132 49.988 C 288.176 49.189 289.285 48.483 290.36 47.802 C 291.428 47.094 292.647 46.537 293.993 46.051 C 295.319 45.555 296.909 45.176 298.704 44.885 C 300.476 44.572 302.607 44.448 305.03 44.448 C 311.189 44.439 316.021 45.809 319.43 48.532 C 322.809 51.251 324.546 55.096 324.546 60.055 L 324.546 141.612 Z " fill="rgb(212,0,103)"/><path d=" M 394.324 149.78 C 389.808 149.76 386.091 149.051 383.085 147.593 C 380.063 146.111 377.859 144.044 376.424 141.319 C 375.048 142.258 373.598 143.263 371.983 144.237 C 370.353 145.205 368.596 146.11 366.666 146.937 C 364.726 147.758 362.584 148.443 360.207 148.977 C 357.806 149.494 355.205 149.78 352.332 149.78 C 346.109 149.76 341.341 148.419 337.932 145.696 C 334.491 142.948 332.819 139.131 332.819 134.169 L 332.819 105.283 C 332.791 103.025 333.089 101.368 333.627 100.249 C 334.135 99.121 335.646 98.571 338.068 98.571 L 360.276 98.571 C 363.042 98.555 364.782 99.13 365.455 100.249 C 366.121 101.358 366.465 103.046 366.465 105.283 L 366.465 125.854 C 366.455 127.593 366.913 128.917 367.81 129.793 C 368.682 130.645 369.649 131.107 370.637 131.107 C 371.713 131.078 372.678 130.669 373.53 129.793 C 374.351 128.893 374.808 127.507 374.808 125.563 L 374.808 105.283 C 374.784 103.025 375.078 101.368 375.616 100.249 C 376.128 99.121 377.635 98.571 380.057 98.571 L 402.265 98.571 C 405.036 98.555 406.773 99.13 407.444 100.249 C 408.114 101.358 408.454 103.046 408.454 105.283 L 408.454 125.854 C 408.448 127.593 408.701 129.014 409.194 130.085 C 409.668 131.133 410.294 131.933 411.013 132.418 C 411.435 132.677 411.909 132.88 412.358 132.929 C 412.799 132.974 413.189 133.074 413.502 133.221 C 413.793 133.368 414.085 133.636 414.31 134.024 C 414.51 134.412 414.648 135.045 414.648 135.921 L 414.648 139.715 C 414.643 140.948 414.401 141.952 413.907 142.633 C 413.389 143.31 412.807 143.897 412.088 144.382 C 411.083 144.944 410.069 145.596 408.993 146.277 C 407.898 146.939 406.707 147.541 405.362 148.029 C 404.007 148.512 402.445 148.929 400.651 149.269 C 398.851 149.594 396.747 149.78 394.324 149.78 Z " fill="rgb(212,0,103)"/><path d=" M 446.115 96.677 C 447.525 96.658 449.655 96.75 452.435 96.896 C 455.215 97.016 457.995 97.43 460.785 98.062 C 463.545 98.68 465.985 99.716 468.045 101.126 C 470.105 102.535 471.145 104.555 471.145 107.18 C 471.145 109.202 470.475 110.973 469.125 112.432 C 467.745 113.887 466.125 114.619 464.145 114.619 C 462.615 114.587 461.275 114.182 460.105 113.307 C 458.915 112.402 458.135 111.264 457.685 109.805 C 457.405 108.901 457.145 108.273 456.875 107.837 C 456.595 107.394 456.025 107.18 455.135 107.18 C 454.205 107.161 453.645 107.473 453.385 108.057 C 453.095 108.628 452.975 109.321 452.975 110.098 C 452.965 111.433 453.875 112.602 455.665 113.527 C 457.455 114.449 459.395 115.205 461.455 115.787 C 465.395 116.933 468.255 119.022 470.005 121.988 C 471.725 124.932 472.625 128.333 472.625 132.127 C 472.595 136.113 471.485 139.325 469.195 141.757 C 466.885 144.177 464.125 146.062 460.845 147.376 C 457.565 148.67 454.115 149.538 450.485 149.926 C 446.835 150.312 443.685 150.508 440.995 150.508 C 439.455 150.479 437.295 150.412 434.465 150.218 C 431.635 149.992 428.815 149.514 425.995 148.687 C 423.146 147.839 420.698 146.669 418.588 145.112 C 416.462 143.524 415.426 141.414 415.426 138.691 C 415.395 136.53 416.099 134.657 417.446 133.002 C 418.789 131.321 420.452 130.521 422.424 130.521 C 424.101 130.521 425.745 131.153 427.275 132.418 C 428.785 133.65 429.645 135.19 429.825 136.94 C 429.885 138.005 430.185 138.692 430.635 138.985 C 431.085 139.255 431.625 139.423 432.245 139.423 C 432.965 139.422 433.615 139.204 434.205 138.766 C 434.765 138.313 435.075 137.525 435.075 136.357 C 435.065 135.178 434.805 134.389 434.265 133.952 C 433.715 133.505 432.925 133.052 431.845 132.563 C 429.955 131.773 428.165 130.986 426.465 130.158 C 424.745 129.318 423.232 128.285 421.887 127.021 C 420.524 125.758 419.488 124.177 418.726 122.28 C 417.933 120.364 417.582 117.976 417.582 115.058 C 417.566 110.668 418.59 107.252 420.608 104.773 C 422.603 102.276 425.095 100.446 428.015 99.23 C 430.905 98.011 434.025 97.284 437.295 97.041 C 440.555 96.792 443.515 96.677 446.115 96.677 Z " fill="rgb(212,0,103)"/><path d=" M 537.125 97.113 C 543.285 97.083 548.115 98.475 551.525 101.199 C 554.905 103.896 556.635 107.763 556.635 112.723 L 556.635 141.612 C 556.635 143.817 556.365 145.524 555.825 146.643 C 555.255 147.755 553.805 148.321 551.385 148.321 L 529.175 148.321 C 526.385 148.321 524.675 147.762 523.995 146.643 C 523.305 145.517 522.985 143.847 522.985 141.612 L 522.985 121.041 C 522.975 119.185 522.515 117.78 521.575 116.808 C 520.625 115.808 519.625 115.351 518.545 115.351 C 517.555 115.341 516.665 115.813 515.855 116.737 C 515.045 117.655 514.645 119.094 514.645 121.041 L 514.645 141.612 C 514.645 143.817 514.375 145.524 513.835 146.643 C 513.295 147.755 511.815 148.321 509.395 148.321 L 487.185 148.321 C 484.395 148.321 482.685 147.762 482.005 146.643 C 481.315 145.517 481.005 143.847 481.005 141.612 L 481.005 68.374 C 480.975 66.216 480.665 64.58 479.995 63.412 C 479.295 62.214 478.445 61.563 477.365 61.369 C 476.095 61.158 475.365 60.834 475.145 60.348 C 474.915 59.852 474.805 58.986 474.805 57.721 L 474.805 54.805 C 474.785 53.415 475.055 52.446 475.545 51.813 C 476.035 51.15 476.695 50.573 477.505 49.988 C 478.555 49.287 479.635 48.629 480.665 47.948 C 481.685 47.258 482.885 46.658 484.225 46.124 C 485.545 45.588 487.125 45.176 488.875 44.885 C 490.605 44.572 492.705 44.448 495.135 44.448 C 501.285 44.439 506.125 45.809 509.535 48.532 C 512.905 51.251 514.645 55.096 514.645 60.055 L 514.645 104.115 C 515.985 103.111 517.385 102.242 518.815 101.416 C 520.225 100.558 521.845 99.86 523.595 99.227 C 525.325 98.593 527.315 98.085 529.515 97.696 C 531.685 97.283 534.245 97.113 537.125 97.113 Z " fill="rgb(212,0,103)"/></g></svg>