<?xml version="1.0" encoding="UTF-8" standalone="no"?><!-- Generator: Gravit.io --><svg xmlns="http://www.w3.org/2000/svg" xmlns:xlink="http://www.w3.org/1999/xlink" style="isolation:isolate" viewBox="806.886 6211.773 78.772 78.684" width="78.772pt" height="78.684pt"><path d=" M 824.069 6211.773 C 822.488 6211.773 820.928 6212.341 819.628 6213.378 L 819.44 6213.472 L 819.347 6213.569 L 809.899 6223.301 L 809.992 6223.392 C 807.158 6225.966 806.151 6229.993 807.441 6233.599 C 807.453 6233.623 807.429 6233.668 807.441 6233.692 C 810.005 6241.027 816.559 6255.188 829.36 6267.989 C 842.209 6280.839 856.558 6287.133 863.657 6289.909 L 863.751 6289.909 C 867.37 6291.105 871.351 6290.315 874.239 6287.829 L 883.781 6278.287 C 886.284 6275.784 886.284 6271.436 883.781 6268.933 L 871.5 6256.652 L 871.403 6256.461 C 868.9 6253.958 864.461 6253.958 861.955 6256.461 L 855.908 6262.508 C 851.37 6260.328 847.196 6257.46 843.534 6254.006 C 838.584 6249.281 836.057 6243.848 835.126 6241.722 L 841.172 6235.676 C 843.712 6233.136 843.757 6228.909 841.076 6226.418 L 841.169 6226.321 L 840.888 6226.04 L 828.795 6213.569 L 828.701 6213.475 L 828.511 6213.378 C 827.256 6212.354 825.689 6211.787 824.069 6211.773 Z  M 824.069 6217.82 C 824.316 6217.834 824.551 6217.935 824.731 6218.104 L 836.825 6230.478 L 837.109 6230.763 C 837.085 6230.738 837.284 6231.059 836.919 6231.425 L 829.36 6238.983 L 827.942 6240.307 L 828.607 6242.194 C 828.607 6242.194 832.078 6251.491 839.376 6258.448 L 840.039 6259.013 C 847.062 6265.426 855.343 6268.933 855.343 6268.933 L 857.232 6269.785 L 866.209 6260.806 C 866.729 6260.289 866.632 6260.289 867.152 6260.806 L 879.53 6273.19 C 880.05 6273.707 880.05 6273.519 879.53 6274.036 L 870.269 6283.297 C 868.878 6284.491 867.4 6284.739 865.643 6284.149 C 858.793 6281.455 845.481 6275.608 833.611 6263.742 C 821.647 6251.775 815.401 6238.206 813.113 6231.618 C 812.65 6230.388 812.98 6228.571 814.056 6227.649 L 814.243 6227.458 L 823.41 6218.107 C 823.589 6217.938 823.821 6217.836 824.066 6217.82 L 824.069 6217.82 Z " fill="rgb(212,0,103)"/></svg>