<?xml version="1.0" encoding="UTF-8" standalone="no"?><!-- Generator: Gravit.io --><svg xmlns="http://www.w3.org/2000/svg" xmlns:xlink="http://www.w3.org/1999/xlink" style="isolation:isolate" viewBox="310.786 6000.353 140.915 140.915" width="140.915pt" height="140.915pt"><clipPath id="_clipPath_iLHucyZcqeDGLYVAAlG4IXjbydupK3P5"><path d="M 345 6000.35 L 417.49 6000.35 C 436.371 6000.35 451.7 6015.68 451.7 6034.562 L 451.7 6107.058 C 451.7 6125.94 436.371 6141.27 417.49 6141.27 L 345 6141.27 C 326.119 6141.27 310.79 6125.94 310.79 6107.058 L 310.79 6034.562 C 310.79 6015.68 326.119 6000.35 345 6000.35 Z" style="stroke:none;fill:#FFFFFF;stroke-miterlimit:10;"/></clipPath><g clip-path="url(#_clipPath_iLHucyZcqeDGLYVAAlG4IXjbydupK3P5)"><path d=" M 451.701 6000.353 L 310.786 6000.353 L 310.786 6141.268 L 451.701 6141.268 L 451.701 6000.353 Z  M 420.714 6048.264 L 420.714 6051.083 C 420.714 6077.856 400.26 6108.844 362.911 6108.844 C 351.659 6108.844 341.09 6105.321 331.924 6099.712 L 336.856 6099.712 C 346.015 6099.712 355.175 6096.189 362.22 6091.229 C 353.061 6091.229 346.015 6084.902 343.211 6077.138 C 344.613 6077.138 346.015 6077.856 346.734 6077.856 C 348.819 6077.856 350.257 6077.856 352.342 6077.138 C 343.211 6075.052 336.165 6067.288 336.165 6057.438 C 338.969 6058.84 341.774 6059.523 345.296 6060.242 C 339.688 6055.31 336.165 6049.673 336.165 6042.628 C 336.165 6039.105 336.849 6035.582 338.969 6032.778 C 348.819 6044.749 363.629 6053.196 380.525 6053.915 C 380.525 6052.478 379.842 6051.076 379.842 6048.955 C 379.849 6037.681 388.987 6028.544 400.26 6028.536 C 405.904 6028.536 411.547 6030.65 415.07 6034.863 C 419.995 6034.18 424.23 6032.059 427.753 6029.938 C 426.322 6034.87 422.799 6038.393 418.593 6041.226 C 422.799 6040.507 426.322 6039.817 430.564 6037.703 C 427.834 6041.704 424.513 6045.267 420.714 6048.271 L 420.714 6048.264 Z " fill="rgb(212,0,103)"/></g></svg>